<svg xmlns="http://www.w3.org/2000/svg" version="1.1" viewBox="-5.0 -10.0 110.0 135.0">
 <path d="m35.438 13.27c-6.4492 0.41406-9.3398 3.9531-9.4727 10.637v-0.003906c-0.011719 0.74609-0.62109 1.3438-1.3633 1.3477-7.7891 0.61719-11.301 6.9805-9.332 14.051h-0.003906c0.13672 0.51562-0.027344 1.0625-0.42188 1.418-2.5977 2.4297-4.0586 5.832-4.0352 9.3828 0.023437 3.5547 1.5312 6.9336 4.1562 9.3281 0.33203 0.37109 0.44141 0.89453 0.27734 1.3672-0.41797 1.4023-0.62891 2.8555-0.625 4.3203-0.10156 2.6445 0.92578 5.2109 2.8281 7.0508 1.9023 1.8398 4.4961 2.7891 7.1367 2.6016 0.75-0.007812 1.3672 0.58984 1.3828 1.3398-0.16016 2.8672 0.76172 5.6914 2.5898 7.9102 1.8633 1.7578 4.3242 2.7305 6.8828 2.7266 0.36328 0 0.71484 0.14062 0.97266 0.39844 0.25781 0.25781 0.40234 0.60938 0.40234 0.97266 0 1.6836 0.70703 3.293 1.9492 4.4297 1.2383 1.1406 2.9023 1.707 4.5781 1.5586v-88.199c-1.6758-0.14453-3.3359 0.41797-4.5781 1.5586-1.2422 1.1367-1.9492 2.7461-1.9492 4.4297 0 0.75781-0.61719 1.3711-1.375 1.375zm32.363 70.824c-1.7227 0-3.2773 1.0352-3.9375 2.625-0.66016 1.5898-0.29688 3.4219 0.92188 4.6406 1.2148 1.2188 3.0469 1.582 4.6367 0.92578 1.5938-0.66016 2.6289-2.2109 2.6328-3.9336-0.003907-2.3477-1.9062-4.2539-4.2539-4.2578zm-4.9492-0.69141c0.10547-0.10938 0.21875-0.21094 0.32813-0.3125l-2.7969-4.8477-8.8008-0.003907v9.8789c0 4.5938-3.5469 8.4023-8.1289 8.7344-4.5781 0.33203-8.6367-2.9297-9.2969-7.4727-6.25-0.375-11.066-5.6562-10.867-11.914-6.5312-0.29297-11.617-5.7812-11.41-12.312-0.007812-1.5039 0.17578-3 0.55078-4.4531-2.8047-2.8555-4.375-6.6992-4.3711-10.699 0-4.0039 1.5742-7.8438 4.3789-10.695-1.1445-3.6719-0.59375-7.6641 1.5039-10.887 2.0977-3.2227 5.5234-5.3398 9.3438-5.7773 0.49219-6.9961 4.0977-11.188 10.871-12.004v-0.003907c0.66016-4.543 4.7188-7.8086 9.2969-7.4766 4.582 0.33203 8.1289 4.1445 8.1289 8.7383v9.8789h8.7969l2.7969-4.8477v-0.003906c-2.707-2.375-3.168-6.418-1.0664-9.3438 2.0977-2.9258 6.0742-3.7852 9.1914-1.9805 3.1211 1.8008 4.3633 5.6758 2.875 8.9531-1.4844 3.2812-5.2188 4.8984-8.6289 3.7422l-3.1445 5.4531c-0.23047 0.47266-0.70703 0.76953-1.2344 0.76953h-9.5859v10.688h21.773l2.793-4.8516c-2.6992-2.375-3.1562-6.4102-1.0586-9.332 2.1016-2.918 6.0703-3.7734 9.1836-1.9688 3.1133 1.8008 4.3516 5.6719 2.8633 8.9453-1.4883 3.2734-5.2148 4.8867-8.6211 3.7266l-3.1289 5.4219h0.003906c-0.22656 0.48828-0.71484 0.80469-1.2539 0.80469h-22.559v10.688h26.492l0.003907-0.003907c0.70703-3.5312 3.9727-5.9492 7.5547-5.5938 3.582 0.35156 6.3125 3.3672 6.3125 6.9648 0 3.6016-2.7305 6.6172-6.3125 6.9688-3.582 0.35547-6.8477-2.0625-7.5547-5.5938h-26.492v10.688h22.559l-0.003906-0.003906c0.53906 0 1.0273 0.31641 1.2539 0.80469l3.1289 5.4219h-0.003906c3.418-1.168 7.1602 0.44922 8.6562 3.7344 1.4922 3.2891 0.25 7.1719-2.875 8.9805-3.1211 1.8086-7.1094 0.94922-9.2148-1.9805-2.1055-2.9336-1.6445-6.9844 1.0664-9.3672l-2.7969-4.8477h-21.77v10.688h9.5859c0.52734 0 1.0039 0.30078 1.2344 0.77344l3.1445 5.4492c3.3789-1.1562 7.0859 0.40625 8.6172 3.6328 1.5312 3.2227 0.40234 7.082-2.625 8.9727-3.0312 1.8906-6.9922 1.207-9.2148-1.5859-2.2227-2.793-1.9961-6.8086 0.52344-9.3359zm17.922-12.738h-0.003907c-1.7227 0-3.2734 1.0352-3.9336 2.625-0.66016 1.5898-0.29688 3.4219 0.92187 4.6367 1.2148 1.2188 3.043 1.582 4.6367 0.92578 1.5898-0.65625 2.625-2.207 2.6289-3.9297-0.003907-2.3477-1.9062-4.2539-4.2539-4.2578zm4.1719-24.914h-0.003906c-1.7227 0-3.2734 1.0352-3.9336 2.625-0.66016 1.5898-0.29687 3.418 0.91797 4.6367 1.2188 1.2188 3.0469 1.582 4.6367 0.92578 1.5938-0.65625 2.6289-2.207 2.6328-3.9297-0.003906-2.3477-1.9062-4.2539-4.2539-4.2578zm-4.1758-24.91c-1.7227 0-3.2734 1.0352-3.9297 2.625-0.66016 1.5898-0.29688 3.4219 0.92188 4.6367 1.2148 1.2148 3.0469 1.582 4.6367 0.92188 1.5859-0.65625 2.625-2.2109 2.625-3.9297-0.003907-2.3477-1.9062-4.2539-4.2539-4.2539zm-12.969-13.43c-1.7227-0.003906-3.2734 1.0352-3.9336 2.625-0.66016 1.5898-0.29688 3.4219 0.92187 4.6367 1.2188 1.2188 3.0469 1.582 4.6367 0.92188 1.5898-0.65625 2.6289-2.2109 2.6289-3.9297-0.003907-2.3516-1.9062-4.2539-4.2539-4.2539zm-21.711 85.762c1.7148-1.1133 2.7461-3.0117 2.7461-5.0547v-76.223c0.003906-2.0391-1.0312-3.9414-2.7461-5.0469zm-14.836-30.77c5.8125 3.6211 6.043 8.8477 2.3906 14.574-0.40625 0.63672-1.2539 0.82031-1.8867 0.41406-0.63672-0.40625-0.82422-1.25-0.41797-1.8867 3.0156-4.7383 2.8359-8.3516-2.1406-11.133-1.3711 0.94922-2.8828 1.6797-4.4805 2.1641-0.34375 0.11328-0.72266 0.085938-1.0469-0.082031-0.32422-0.16406-0.57031-0.45312-0.68359-0.79688-0.10938-0.34766-0.082031-0.72656 0.085938-1.0508 0.16406-0.32422 0.45312-0.56641 0.80078-0.67578 2.3398-0.51953 4.3789-1.9414 5.6719-3.9609 0.84375-2.2305 0.62891-4.7227-0.58203-6.7773-0.3125-0.6875-0.007813-1.5 0.68359-1.8125 0.6875-0.3125 1.5-0.007812 1.8125 0.68359 1.582 2.793 1.7812 6.168 0.53906 9.1289-0.21094 0.42578-0.46094 0.82812-0.74609 1.2109zm0.73438-38.266v-0.003907c-0.3125-0.69141-0.003906-1.5 0.6875-1.8125 0.6875-0.3125 1.5-0.003906 1.8125 0.6875 2.9648 6.5898 1.0039 11.41-5.3555 13.969l0.027344 0.11719c0.39062 2.3008-0.17188 4.6602-1.5508 6.5391-0.40234 0.63672-1.2461 0.82813-1.8828 0.42969-0.64062-0.39844-0.83984-1.2383-0.44922-1.8789 2.25-3.6211 1.6094-5.8789-1.9883-7.5977-0.67969-0.32813-0.96875-1.1445-0.64453-1.8281 0.32812-0.67969 1.1445-0.96875 1.8281-0.64062 1.2734 0.57031 2.418 1.3984 3.3555 2.4297 1.9805-0.57812 3.6719-1.8711 4.7461-3.6289 0.83984-2.2344 0.625-4.7305-0.58594-6.7852z"/>
<text x="0.0" y="117.5" font-size="5.0" font-weight="bold" font-family="Arbeit Regular, Helvetica, Arial-Unicode, Arial, Sans-serif" fill="#000000">Created by Fitrapratama</text><text x="0.0" y="122.5" font-size="5.0" font-weight="bold" font-family="Arbeit Regular, Helvetica, Arial-Unicode, Arial, Sans-serif" fill="#000000">from Noun Project</text></svg>